<svg xmlns="http://www.w3.org/2000/svg" viewBox="0 0 410 404" aria-hidden="true"><path fill="#41D1FF" d="M399.641 59.524 215.643 388.545c-3.401 6.117-12.184 6.141-15.618.044L10.353 59.601c-3.756-6.532 1.872-14.387 9.282-12.961l185.358 35.744a10.27 10.27 0 0 0 3.881-.006l181.447-35.68c7.4-1.455 13.05 6.38 9.32 12.826Z"/><path fill="#BD34FE" d="M292.965.013 156.412 26.78a5.38 5.38 0 0 0-4.276 4.395l-8.41 46.09a5.38 5.38 0 0 0 6.228 6.162l38.01-7.31a5.38 5.38 0 0 1 6.267 6.69l-11.29 55.32a5.38 5.38 0 0 0 6.085 6.421l23.484-3.53a5.38 5.38 0 0 1 6.132 6.92l-17.937 62.785c-1.12 3.92 4.101 6.058 5.962 2.443l1.243-2.414 111.27-222.22c1.863-3.718-1.343-8.094-5.465-7.285Z"/><path fill="#FFEA83" d="M193.376 0 92.754 19.724a5.38 5.38 0 0 0-4.368 4.847L82.21 77.81a5.38 5.38 0 0 0 6.393 5.85l27.98-5.33a5.38 5.38 0 0 1 6.151 6.527l-8.3 39.288a5.38 5.38 0 0 0 6.22 6.344l17.287-3.22a5.38 5.38 0 0 1 6.354 6.2l-13.32 73.06a5.38 5.38 0 0 0 9.967 3.249L230.58 56.12a5.38 5.38 0 0 0-5.975-7.703l-35.87 6.846a5.38 5.38 0 0 1-6.263-6.69l11.4-55.566A5.38 5.38 0 0 0 193.376 0Z"/></svg>